Archivo Black-Regular.ufo
<glyph name="five" format="1">
  <advance width="667"/>
  <unicode hex="0035"/>
  <outline>
    <contour>
      <point x="574" y="688" type="line"/>
      <point x="98" y="688" type="line"/>
      <point x="69" y="303" type="line"/>
      <point x="227" y="281" type="line"/>
      <point x="238" y="294"/>
      <point x="256" y="331"/>
      <point x="323" y="331" type="curve" smooth="yes"/>
      <point x="391" y="331"/>
      <point x="428" y="287"/>
      <point x="428" y="228" type="curve" smooth="yes"/>
      <point x="428" y="170"/>
      <point x="392" y="126"/>
      <point x="322" y="126" type="curve" smooth="yes"/>
      <point x="251" y="126"/>
      <point x="215" y="170"/>
      <point x="215" y="222" type="curve"/>
      <point x="39" y="222" type="line"/>
      <point x="39" y="82"/>
      <point x="143" y="-12"/>
      <point x="343" y="-12" type="curve" smooth="yes"/>
      <point x="516" y="-12"/>
      <point x="625" y="94"/>
      <point x="625" y="225" type="curve" smooth="yes"/>
      <point x="625" y="371"/>
      <point x="532" y="459"/>
      <point x="386" y="459" type="curve" smooth="yes"/>
      <point x="293" y="459"/>
      <point x="239" y="414"/>
      <point x="239" y="414" type="curve"/>
      <point x="247" y="518" type="line"/>
      <point x="574" y="518" type="line"/>
    </contour>
  </outline>
</glyph>
<glyph name="eight" format="1">
  <advance width="667"/>
  <unicode hex="0038"/>
  <outline>
    <contour>
      <point x="184" y="700"/>
      <point x="66" y="628"/>
      <point x="66" y="497" type="curve" smooth="yes"/>
      <point x="66" y="420"/>
      <point x="102" y="386"/>
      <point x="150" y="352" type="curve"/>
      <point x="150" y="348" type="line"/>
      <point x="84" y="311"/>
      <point x="41" y="271"/>
      <point x="41" y="189" type="curve" smooth="yes"/>
      <point x="41" y="58"/>
      <point x="154" y="-12"/>
      <point x="332" y="-12" type="curve" smooth="yes"/>
      <point x="510" y="-12"/>
      <point x="626" y="58"/>
      <point x="626" y="189" type="curve" smooth="yes"/>
      <point x="626" y="271"/>
      <point x="582" y="311"/>
      <point x="516" y="348" type="curve"/>
      <point x="516" y="352" type="line"/>
      <point x="564" y="386"/>
      <point x="600" y="420"/>
      <point x="600" y="497" type="curve" smooth="yes"/>
      <point x="600" y="628"/>
      <point x="480" y="700"/>
      <point x="332" y="700" type="curve" smooth="yes"/>
    </contour>
    <contour>
      <point x="382" y="287"/>
      <point x="427" y="259"/>
      <point x="427" y="205" type="curve" smooth="yes"/>
      <point x="427" y="151"/>
      <point x="386" y="123"/>
      <point x="332" y="123" type="curve" smooth="yes"/>
      <point x="278" y="123"/>
      <point x="240" y="151"/>
      <point x="240" y="205" type="curve" smooth="yes"/>
      <point x="240" y="259"/>
      <point x="282" y="287"/>
      <point x="332" y="287" type="curve" smooth="yes"/>
    </contour>
    <contour>
      <point x="386" y="565"/>
      <point x="427" y="543"/>
      <point x="427" y="489" type="curve" smooth="yes"/>
      <point x="427" y="435"/>
      <point x="382" y="414"/>
      <point x="332" y="414" type="curve" smooth="yes"/>
      <point x="282" y="414"/>
      <point x="240" y="435"/>
      <point x="240" y="489" type="curve" smooth="yes"/>
      <point x="240" y="543"/>
      <point x="278" y="565"/>
      <point x="332" y="565" type="curve" smooth="yes"/>
    </contour>
  </outline>
</glyph>
<glyph name="less" format="1">
  <advance width="660"/>
  <unicode hex="003C"/>
  <outline>
    <contour>
      <point x="592" y="535" type="line"/>
      <point x="67" y="332" type="line"/>
      <point x="67" y="189" type="line"/>
      <point x="592" y="-13" type="line"/>
      <point x="592" y="129" type="line"/>
      <point x="233" y="260" type="line"/>
      <point x="592" y="392" type="line"/>
    </contour>
  </outline>
</glyph>
<glyph name="K" format="1">
  <advance width="833"/>
  <unicode hex="004B"/>
  <outline>
    <contour>
      <point x="295" y="688" type="line"/>
      <point x="74" y="688" type="line"/>
      <point x="74" y="0" type="line"/>
      <point x="295" y="0" type="line"/>
      <point x="295" y="154" type="line"/>
      <point x="415" y="252" type="line"/>
      <point x="558" y="0" type="line"/>
      <point x="819" y="0" type="line"/>
      <point x="567" y="405" type="line"/>
      <point x="814" y="688" type="line"/>
      <point x="540" y="688" type="line"/>
      <point x="295" y="394" type="line"/>
    </contour>
    <contour>
      <point x="417" y="688" type="move" name="top"/>
    </contour>
    <contour>
      <point x="417" y="0" type="move" name="bottom"/>
    </contour>
  </outline>
</glyph>
<glyph name="Y" format="1">
  <advance width="778"/>
  <unicode hex="0059"/>
  <outline>
    <contour>
      <point x="770" y="688" type="line"/>
      <point x="529" y="688" type="line"/>
      <point x="397" y="459" type="line"/>
      <point x="393" y="459" type="line"/>
      <point x="261" y="688" type="line"/>
      <point x="7" y="688" type="line"/>
      <point x="280" y="267" type="line"/>
      <point x="280" y="0" type="line"/>
      <point x="501" y="0" type="line"/>
      <point x="501" y="267" type="line"/>
    </contour>
    <contour>
      <point x="389" y="688" type="move" name="top"/>
    </contour>
  </outline>
</glyph>
<glyph name="l" format="1">
  <advance width="333"/>
  <unicode hex="006C"/>
  <outline>
    <contour>
      <point x="266" y="725" type="line"/>
      <point x="67" y="725" type="line"/>
      <point x="67" y="0" type="line"/>
      <point x="266" y="0" type="line"/>
    </contour>
    <contour>
      <point x="167" y="528" type="move" name="top"/>
    </contour>
    <contour>
      <point x="167" y="0" type="move" name="bottom"/>
    </contour>
    <contour>
      <point x="313" y="528" type="move" name="topright"/>
    </contour>
  </outline>
</glyph>
<glyph name="q" format="1">
  <advance width="667"/>
  <unicode hex="0071"/>
  <outline>
    <contour>
      <point x="119" y="540"/>
      <point x="36" y="449"/>
      <point x="36" y="263" type="curve" smooth="yes"/>
      <point x="36" y="79"/>
      <point x="119" y="-12"/>
      <point x="259" y="-12" type="curve" smooth="yes"/>
      <point x="318" y="-12"/>
      <point x="369" y="7"/>
      <point x="407" y="48" type="curve"/>
      <point x="407" y="-197" type="line"/>
      <point x="606" y="-197" type="line"/>
      <point x="606" y="528" type="line"/>
      <point x="444" y="528" type="line"/>
      <point x="427" y="453" type="line"/>
      <point x="388" y="512"/>
      <point x="330" y="540"/>
      <point x="259" y="540" type="curve" smooth="yes"/>
    </contour>
    <contour>
      <point x="383" y="393"/>
      <point x="409" y="343"/>
      <point x="409" y="281" type="curve" smooth="yes"/>
      <point x="409" y="248" type="line" smooth="yes"/>
      <point x="409" y="186"/>
      <point x="383" y="135"/>
      <point x="321" y="135" type="curve" smooth="yes"/>
      <point x="259" y="135"/>
      <point x="235" y="176"/>
      <point x="235" y="238" type="curve" smooth="yes"/>
      <point x="235" y="291" type="line" smooth="yes"/>
      <point x="235" y="353"/>
      <point x="259" y="393"/>
      <point x="321" y="393" type="curve" smooth="yes"/>
    </contour>
  </outline>
</glyph>
<glyph name="braceleft" format="1">
  <advance width="389"/>
  <unicode hex="007B"/>
  <outline>
    <contour>
      <point x="349" y="737" type="line"/>
      <point x="258" y="737" type="line" smooth="yes"/>
      <point x="190" y="737"/>
      <point x="117" y="702"/>
      <point x="117" y="625" type="curve" smooth="yes"/>
      <point x="117" y="386" type="line" smooth="yes"/>
      <point x="117" y="346"/>
      <point x="70" y="329"/>
      <point x="30" y="329" type="curve"/>
      <point x="30" y="250" type="line"/>
      <point x="75" y="250"/>
      <point x="117" y="235"/>
      <point x="117" y="195" type="curve" smooth="yes"/>
      <point x="117" y="-48" type="line" smooth="yes"/>
      <point x="117" y="-125"/>
      <point x="190" y="-160"/>
      <point x="258" y="-160" type="curve" smooth="yes"/>
      <point x="349" y="-160" type="line"/>
      <point x="349" y="-62" type="line"/>
      <point x="320" y="-62"/>
      <point x="275" y="-58"/>
      <point x="273" y="-20" type="curve" smooth="yes"/>
      <point x="263" y="182" type="line" smooth="yes"/>
      <point x="260" y="247"/>
      <point x="229" y="285"/>
      <point x="162" y="285" type="curve"/>
      <point x="162" y="294" type="line"/>
      <point x="229" y="294"/>
      <point x="260" y="332"/>
      <point x="263" y="397" type="curve" smooth="yes"/>
      <point x="273" y="598" type="line" smooth="yes"/>
      <point x="275" y="635"/>
      <point x="321" y="639"/>
      <point x="349" y="639" type="curve"/>
    </contour>
  </outline>
</glyph>
<glyph name="currency" format="1">
  <advance width="660"/>
  <unicode hex="00A4"/>
  <outline>
    <contour>
      <point x="523" y="603" type="line"/>
      <point x="465" y="545" type="line"/>
      <point x="439" y="569"/>
      <point x="385" y="587"/>
      <point x="329" y="587" type="curve" smooth="yes"/>
      <point x="276" y="587"/>
      <point x="219" y="569"/>
      <point x="189" y="543" type="curve"/>
      <point x="132" y="600" type="line"/>
      <point x="69" y="537" type="line"/>
      <point x="127" y="479" type="line"/>
      <point x="96" y="449"/>
      <point x="81" y="393"/>
      <point x="81" y="339" type="curve" smooth="yes"/>
      <point x="81" y="283"/>
      <point x="98" y="232"/>
      <point x="127" y="199" type="curve"/>
      <point x="69" y="141" type="line"/>
      <point x="130" y="80" type="line"/>
      <point x="187" y="137" type="line"/>
      <point x="219" y="108"/>
      <point x="273" y="91"/>
      <point x="329" y="91" type="curve" smooth="yes"/>
      <point x="386" y="91"/>
      <point x="441" y="109"/>
      <point x="471" y="139" type="curve"/>
      <point x="529" y="81" type="line"/>
      <point x="589" y="141" type="line"/>
      <point x="533" y="197" type="line"/>
      <point x="561" y="231"/>
      <point x="577" y="285"/>
      <point x="577" y="339" type="curve" smooth="yes"/>
      <point x="577" y="395"/>
      <point x="561" y="451"/>
      <point x="535" y="479" type="curve"/>
      <point x="591" y="535" type="line"/>
    </contour>
    <contour>
      <point x="406" y="477"/>
      <point x="457" y="413"/>
      <point x="457" y="339" type="curve" smooth="yes"/>
      <point x="457" y="265"/>
      <point x="406" y="201"/>
      <point x="329" y="201" type="curve" smooth="yes"/>
      <point x="256" y="201"/>
      <point x="201" y="262"/>
      <point x="201" y="339" type="curve" smooth="yes"/>
      <point x="201" y="415"/>
      <point x="255" y="477"/>
      <point x="329" y="477" type="curve" smooth="yes"/>
    </contour>
  </outline>
</glyph>
<glyph name="macron" format="1">
  <advance width="333"/>
  <unicode hex="00AF"/>
  <outline>
    <contour>
      <point x="325" y="705" type="line"/>
      <point x="9" y="705" type="line"/>
      <point x="9" y="605" type="line"/>
      <point x="325" y="605" type="line"/>
    </contour>
    <contour>
      <point x="167" y="528" type="move" name="_top"/>
    </contour>
  </outline>
</glyph>
<glyph name="uni00B9" format="1">
  <advance width="400"/>
  <unicode hex="00B9"/>
  <outline>
    <contour>
      <point x="268" y="729" type="line"/>
      <point x="224" y="729" type="line"/>
      <point x="173" y="698"/>
      <point x="91" y="668"/>
      <point x="30" y="664" type="curve"/>
      <point x="30" y="595" type="line"/>
      <point x="137" y="595" type="line"/>
      <point x="137" y="408" type="line"/>
      <point x="30" y="408" type="line"/>
      <point x="30" y="316" type="line"/>
      <point x="371" y="316" type="line"/>
      <point x="371" y="408" type="line"/>
      <point x="268" y="408" type="line"/>
    </contour>
  </outline>
</glyph>
<glyph name="onehalf" format="1">
  <advance width="1000"/>
  <unicode hex="00BD"/>
  <outline>
    <contour>
      <point x="766" y="700" type="line"/>
      <point x="670" y="700" type="line"/>
      <point x="260" y="-12" type="line"/>
      <point x="355" y="-12" type="line"/>
    </contour>
    <contour>
      <point x="276" y="694" type="line"/>
      <point x="232" y="694" type="line"/>
      <point x="181" y="663"/>
      <point x="99" y="633"/>
      <point x="38" y="629" type="curve"/>
      <point x="38" y="560" type="line"/>
      <point x="145" y="560" type="line"/>
      <point x="145" y="373" type="line"/>
      <point x="38" y="373" type="line"/>
      <point x="38" y="281" type="line"/>
      <point x="379" y="281" type="line"/>
      <point x="379" y="373" type="line"/>
      <point x="276" y="373" type="line"/>
    </contour>
    <contour>
      <point x="667" y="420"/>
      <point x="602" y="364"/>
      <point x="602" y="280" type="curve" smooth="yes"/>
      <point x="602" y="276"/>
      <point x="602" y="272"/>
      <point x="603" y="267" type="curve"/>
      <point x="720" y="267" type="line"/>
      <point x="720" y="279" type="line" smooth="yes"/>
      <point x="720" y="311"/>
      <point x="743" y="335"/>
      <point x="783" y="335" type="curve" smooth="yes"/>
      <point x="823" y="335"/>
      <point x="840" y="314"/>
      <point x="840" y="291" type="curve" smooth="yes"/>
      <point x="840" y="253"/>
      <point x="766" y="219"/>
      <point x="664" y="136" type="curve" smooth="yes"/>
      <point x="627" y="106"/>
      <point x="601" y="74"/>
      <point x="601" y="29" type="curve" smooth="yes"/>
      <point x="601" y="0" type="line"/>
      <point x="975" y="0" type="line"/>
      <point x="975" y="102" type="line"/>
      <point x="778" y="102" type="line"/>
      <point x="871" y="163"/>
      <point x="970" y="206"/>
      <point x="970" y="296" type="curve" smooth="yes"/>
      <point x="970" y="370"/>
      <point x="903" y="420"/>
      <point x="796" y="420" type="curve" smooth="yes"/>
    </contour>
  </outline>
</glyph>
<glyph name="Adieresis" format="1">
  <advance width="778"/>
  <unicode hex="00C4"/>
  <outline>
    <contour>
      <point x="518" y="688" type="line"/>
      <point x="261" y="688" type="line"/>
      <point x="10" y="0" type="line"/>
      <point x="236" y="0" type="line"/>
      <point x="265" y="97" type="line"/>
      <point x="506" y="97" type="line"/>
      <point x="535" y="0" type="line"/>
      <point x="769" y="0" type="line"/>
    </contour>
    <contour>
      <point x="388" y="496" type="line"/>
      <point x="460" y="251" type="line"/>
      <point x="311" y="251" type="line"/>
      <point x="384" y="496" type="line"/>
    </contour>
    <contour>
      <point x="575" y="885" type="line"/>
      <point x="423" y="885" type="line"/>
      <point x="423" y="746" type="line"/>
      <point x="575" y="746" type="line"/>
    </contour>
    <contour>
      <point x="355" y="885" type="line"/>
      <point x="203" y="885" type="line"/>
      <point x="203" y="746" type="line"/>
      <point x="355" y="746" type="line"/>
    </contour>
  </outline>
</glyph>
<glyph name="Igrave" format="1">
  <advance width="389"/>
  <unicode hex="00CC"/>
  <outline>
    <contour>
      <point x="305" y="0" type="line"/>
      <point x="305" y="688" type="line"/>
      <point x="84" y="688" type="line"/>
      <point x="84" y="0" type="line"/>
    </contour>
    <contour>
      <point x="291" y="752" type="line"/>
      <point x="199" y="885" type="line"/>
      <point x="6" y="885" type="line"/>
      <point x="4" y="881" type="line"/>
      <point x="164" y="752" type="line"/>
    </contour>
  </outline>
</glyph>
<glyph name="Ntilde" format="1">
  <advance width="833"/>
  <unicode hex="00D1"/>
  <outline>
    <contour>
      <point x="759" y="688" type="line"/>
      <point x="556" y="688" type="line"/>
      <point x="556" y="349" type="line"/>
      <point x="267" y="688" type="line"/>
      <point x="74" y="688" type="line"/>
      <point x="74" y="0" type="line"/>
      <point x="277" y="0" type="line"/>
      <point x="277" y="334" type="line"/>
      <point x="566" y="0" type="line"/>
      <point x="759" y="0" type="line"/>
    </contour>
    <contour>
      <point x="558" y="885" type="line"/>
      <point x="550" y="862"/>
      <point x="533" y="845"/>
      <point x="507" y="845" type="curve" smooth="yes"/>
      <point x="454" y="845"/>
      <point x="398" y="885"/>
      <point x="334" y="885" type="curve" smooth="yes"/>
      <point x="250" y="885"/>
      <point x="194" y="814"/>
      <point x="194" y="742" type="curve"/>
      <point x="275" y="742" type="line"/>
      <point x="283" y="765"/>
      <point x="300" y="782"/>
      <point x="326" y="782" type="curve" smooth="yes"/>
      <point x="379" y="782"/>
      <point x="435" y="742"/>
      <point x="499" y="742" type="curve" smooth="yes"/>
      <point x="583" y="742"/>
      <point x="639" y="813"/>
      <point x="639" y="885" type="curve"/>
    </contour>
  </outline>
</glyph>
<glyph name="otilde" format="1">
  <advance width="667"/>
  <unicode hex="00F5"/>
  <outline>
    <contour>
      <point x="153" y="540"/>
      <point x="36" y="449"/>
      <point x="36" y="264" type="curve" smooth="yes"/>
      <point x="36" y="79"/>
      <point x="153" y="-12"/>
      <point x="333" y="-12" type="curve" smooth="yes"/>
      <point x="513" y="-12"/>
      <point x="631" y="79"/>
      <point x="631" y="264" type="curve" smooth="yes"/>
      <point x="631" y="449"/>
      <point x="513" y="540"/>
      <point x="333" y="540" type="curve" smooth="yes"/>
    </contour>
    <contour>
      <point x="403" y="405"/>
      <point x="432" y="362"/>
      <point x="432" y="292" type="curve" smooth="yes"/>
      <point x="432" y="235" type="line" smooth="yes"/>
      <point x="432" y="165"/>
      <point x="403" y="123"/>
      <point x="333" y="123" type="curve" smooth="yes"/>
      <point x="263" y="123"/>
      <point x="235" y="165"/>
      <point x="235" y="235" type="curve" smooth="yes"/>
      <point x="235" y="292" type="line" smooth="yes"/>
      <point x="235" y="362"/>
      <point x="263" y="405"/>
      <point x="333" y="405" type="curve" smooth="yes"/>
    </contour>
    <contour>
      <point x="475" y="725" type="line"/>
      <point x="467" y="702"/>
      <point x="450" y="685"/>
      <point x="424" y="685" type="curve" smooth="yes"/>
      <point x="371" y="685"/>
      <point x="315" y="725"/>
      <point x="251" y="725" type="curve" smooth="yes"/>
      <point x="167" y="725"/>
      <point x="111" y="654"/>
      <point x="111" y="582" type="curve"/>
      <point x="192" y="582" type="line"/>
      <point x="200" y="605"/>
      <point x="217" y="622"/>
      <point x="243" y="622" type="curve" smooth="yes"/>
      <point x="296" y="622"/>
      <point x="352" y="582"/>
      <point x="416" y="582" type="curve" smooth="yes"/>
      <point x="500" y="582"/>
      <point x="556" y="653"/>
      <point x="556" y="725" type="curve"/>
    </contour>
  </outline>
</glyph>
<glyph name="divide" format="1">
  <advance width="660"/>
  <unicode hex="00F7"/>
  <outline>
    <contour>
      <point x="594" y="328" type="line"/>
      <point x="66" y="328" type="line"/>
      <point x="66" y="196" type="line"/>
      <point x="594" y="196" type="line"/>
    </contour>
    <contour>
      <point x="397" y="146" type="line"/>
      <point x="266" y="146" type="line"/>
      <point x="266" y="15" type="line"/>
      <point x="397" y="15" type="line"/>
    </contour>
    <contour>
      <point x="397" y="508" type="line"/>
      <point x="266" y="508" type="line"/>
      <point x="266" y="377" type="line"/>
      <point x="397" y="377" type="line"/>
    </contour>
  </outline>
</glyph>
<glyph name="Ldot" format="1">
  <advance width="667"/>
  <unicode hex="013F"/>
  <outline>
    <contour>
      <point x="580" y="526" type="line"/>
      <point x="388" y="526" type="line"/>
      <point x="388" y="343" type="line"/>
      <point x="580" y="343" type="line"/>
    </contour>
    <contour>
      <point x="648" y="0" type="line"/>
      <point x="648" y="176" type="line"/>
      <point x="295" y="176" type="line"/>
      <point x="295" y="688" type="line"/>
      <point x="74" y="688" type="line"/>
      <point x="74" y="0" type="line"/>
    </contour>
  </outline>
</glyph>
<glyph name="ncommaaccent" format="1">
  <advance width="667"/>
  <unicode hex="0146"/>
  <outline>
    <contour>
      <point x="349" y="540"/>
      <point x="277" y="504"/>
      <point x="236" y="448" type="curve"/>
      <point x="223" y="528" type="line"/>
      <point x="60" y="528" type="line"/>
      <point x="60" y="0" type="line"/>
      <point x="259" y="0" type="line"/>
      <point x="259" y="310" type="line" smooth="yes"/>
      <point x="259" y="355"/>
      <point x="292" y="393"/>
      <point x="342" y="393" type="curve" smooth="yes"/>
      <point x="386" y="393"/>
      <point x="409" y="362"/>
      <point x="409" y="318" type="curve" smooth="yes"/>
      <point x="409" y="0" type="line"/>
      <point x="608" y="0" type="line"/>
      <point x="608" y="342" type="line" smooth="yes"/>
      <point x="608" y="467"/>
      <point x="549" y="540"/>
      <point x="424" y="540" type="curve" smooth="yes"/>
    </contour>
    <contour>
      <point x="398" y="-59" type="line"/>
      <point x="269" y="-59" type="line"/>
      <point x="269" y="-175" type="line"/>
      <point x="318" y="-175" type="line"/>
      <point x="277" y="-267" type="line"/>
      <point x="344" y="-267" type="line"/>
      <point x="398" y="-168" type="line"/>
    </contour>
  </outline>
</glyph>
<glyph name="ncaron" format="1">
  <advance width="667"/>
  <unicode hex="0148"/>
  <outline>
    <contour>
      <point x="349" y="540"/>
      <point x="277" y="504"/>
      <point x="236" y="448" type="curve"/>
      <point x="223" y="528" type="line"/>
      <point x="60" y="528" type="line"/>
      <point x="60" y="0" type="line"/>
      <point x="259" y="0" type="line"/>
      <point x="259" y="310" type="line" smooth="yes"/>
      <point x="259" y="355"/>
      <point x="292" y="393"/>
      <point x="342" y="393" type="curve" smooth="yes"/>
      <point x="386" y="393"/>
      <point x="409" y="362"/>
      <point x="409" y="318" type="curve" smooth="yes"/>
      <point x="409" y="0" type="line"/>
      <point x="608" y="0" type="line"/>
      <point x="608" y="342" type="line" smooth="yes"/>
      <point x="608" y="467"/>
      <point x="549" y="540"/>
      <point x="424" y="540" type="curve" smooth="yes"/>
    </contour>
    <contour>
      <point x="537" y="725" type="line"/>
      <point x="407" y="725" type="line"/>
      <point x="333" y="648" type="line"/>
      <point x="258" y="725" type="line"/>
      <point x="130" y="725" type="line"/>
      <point x="270" y="580" type="line"/>
      <point x="397" y="580" type="line"/>
    </contour>
  </outline>
</glyph>
<glyph name="oe" format="1">
  <advance width="1000"/>
  <unicode hex="0153"/>
  <outline>
    <contour>
      <point x="612" y="540"/>
      <point x="550" y="523"/>
      <point x="502" y="490" type="curve"/>
      <point x="454" y="523"/>
      <point x="390" y="540"/>
      <point x="316" y="540" type="curve" smooth="yes"/>
      <point x="142" y="540"/>
      <point x="29" y="449"/>
      <point x="29" y="264" type="curve" smooth="yes"/>
      <point x="29" y="79"/>
      <point x="142" y="-12"/>
      <point x="316" y="-12" type="curve" smooth="yes"/>
      <point x="390" y="-12"/>
      <point x="453" y="4"/>
      <point x="502" y="38" type="curve"/>
      <point x="552" y="4"/>
      <point x="618" y="-12"/>
      <point x="698" y="-12" type="curve" smooth="yes"/>
      <point x="881" y="-12"/>
      <point x="974" y="66"/>
      <point x="974" y="192" type="curve"/>
      <point x="781" y="192" type="line"/>
      <point x="781" y="149"/>
      <point x="758" y="115"/>
      <point x="694" y="115" type="curve" smooth="yes"/>
      <point x="625" y="115"/>
      <point x="598" y="157"/>
      <point x="598" y="230" type="curve"/>
      <point x="974" y="230" type="line"/>
      <point x="974" y="264" type="line" smooth="yes"/>
      <point x="974" y="454"/>
      <point x="870" y="540"/>
      <point x="686" y="540" type="curve" smooth="yes"/>
    </contour>
    <contour>
      <point x="379" y="405"/>
      <point x="405" y="362"/>
      <point x="405" y="292" type="curve" smooth="yes"/>
      <point x="405" y="235" type="line" smooth="yes"/>
      <point x="405" y="165"/>
      <point x="379" y="123"/>
      <point x="316" y="123" type="curve" smooth="yes"/>
      <point x="253" y="123"/>
      <point x="228" y="165"/>
      <point x="228" y="235" type="curve" smooth="yes"/>
      <point x="228" y="292" type="line" smooth="yes"/>
      <point x="228" y="362"/>
      <point x="253" y="405"/>
      <point x="316" y="405" type="curve" smooth="yes"/>
    </contour>
    <contour>
      <point x="744" y="413"/>
      <point x="773" y="379"/>
      <point x="773" y="324" type="curve"/>
      <point x="599" y="324" type="line"/>
      <point x="605" y="379"/>
      <point x="633" y="413"/>
      <point x="694" y="413" type="curve" smooth="yes"/>
    </contour>
    <contour>
      <point x="500" y="528" type="move" name="top"/>
    </contour>
  </outline>
</glyph>
<glyph name="Scaron" format="1">
  <advance width="722"/>
  <unicode hex="0160"/>
  <outline>
    <contour>
      <point x="200" y="700"/>
      <point x="54" y="640"/>
      <point x="54" y="480" type="curve" smooth="yes"/>
      <point x="54" y="212"/>
      <point x="460" y="291"/>
      <point x="460" y="192" type="curve" smooth="yes"/>
      <point x="460" y="149"/>
      <point x="403" y="146"/>
      <point x="363" y="146" type="curve" smooth="yes"/>
      <point x="295" y="146"/>
      <point x="252" y="159"/>
      <point x="252" y="233" type="curve"/>
      <point x="43" y="233" type="line"/>
      <point x="43" y="37"/>
      <point x="190" y="-12"/>
      <point x="383" y="-12" type="curve" smooth="yes"/>
      <point x="556" y="-12"/>
      <point x="686" y="57"/>
      <point x="686" y="228" type="curve"/>
      <point x="681" y="483"/>
      <point x="280" y="402"/>
      <point x="280" y="505" type="curve" smooth="yes"/>
      <point x="280" y="529"/>
      <point x="310" y="550"/>
      <point x="371" y="550" type="curve" smooth="yes"/>
      <point x="435" y="550"/>
      <point x="460" y="516"/>
      <point x="460" y="480" type="curve" smooth="yes"/>
      <point x="460" y="476" type="line"/>
      <point x="667" y="476" type="line"/>
      <point x="667" y="488" type="line"/>
      <point x="664" y="635"/>
      <point x="529" y="700"/>
      <point x="363" y="700" type="curve" smooth="yes"/>
    </contour>
    <contour>
      <point x="564" y="885" type="line"/>
      <point x="435" y="885" type="line"/>
      <point x="360" y="808" type="line"/>
      <point x="286" y="885" type="line"/>
      <point x="158" y="885" type="line"/>
      <point x="297" y="740" type="line"/>
      <point x="425" y="740" type="line"/>
    </contour>
  </outline>
</glyph>
<glyph name="Utilde" format="1">
  <advance width="833"/>
  <unicode hex="0168"/>
  <outline>
    <contour>
      <point x="759" y="688" type="line"/>
      <point x="538" y="688" type="line"/>
      <point x="538" y="280" type="line" smooth="yes"/>
      <point x="538" y="206"/>
      <point x="497" y="153"/>
      <point x="416" y="153" type="curve" smooth="yes"/>
      <point x="335" y="153"/>
      <point x="295" y="206"/>
      <point x="295" y="280" type="curve" smooth="yes"/>
      <point x="295" y="688" type="line"/>
      <point x="74" y="688" type="line"/>
      <point x="74" y="277" type="line" smooth="yes"/>
      <point x="74" y="87"/>
      <point x="201" y="-12"/>
      <point x="417" y="-12" type="curve" smooth="yes"/>
      <point x="633" y="-12"/>
      <point x="759" y="87"/>
      <point x="759" y="277" type="curve" smooth="yes"/>
    </contour>
    <contour>
      <point x="558" y="885" type="line"/>
      <point x="550" y="862"/>
      <point x="533" y="845"/>
      <point x="507" y="845" type="curve" smooth="yes"/>
      <point x="454" y="845"/>
      <point x="398" y="885"/>
      <point x="334" y="885" type="curve" smooth="yes"/>
      <point x="250" y="885"/>
      <point x="194" y="814"/>
      <point x="194" y="742" type="curve"/>
      <point x="275" y="742" type="line"/>
      <point x="283" y="765"/>
      <point x="300" y="782"/>
      <point x="326" y="782" type="curve" smooth="yes"/>
      <point x="379" y="782"/>
      <point x="435" y="742"/>
      <point x="499" y="742" type="curve" smooth="yes"/>
      <point x="583" y="742"/>
      <point x="639" y="813"/>
      <point x="639" y="885" type="curve"/>
    </contour>
  </outline>
</glyph>
<glyph name="Uring" format="1">
  <advance width="833"/>
  <unicode hex="016E"/>
  <outline>
    <contour>
      <point x="759" y="688" type="line"/>
      <point x="538" y="688" type="line"/>
      <point x="538" y="280" type="line" smooth="yes"/>
      <point x="538" y="206"/>
      <point x="497" y="153"/>
      <point x="416" y="153" type="curve" smooth="yes"/>
      <point x="335" y="153"/>
      <point x="295" y="206"/>
      <point x="295" y="280" type="curve" smooth="yes"/>
      <point x="295" y="688" type="line"/>
      <point x="74" y="688" type="line"/>
      <point x="74" y="277" type="line" smooth="yes"/>
      <point x="74" y="87"/>
      <point x="201" y="-12"/>
      <point x="417" y="-12" type="curve" smooth="yes"/>
      <point x="633" y="-12"/>
      <point x="759" y="87"/>
      <point x="759" y="277" type="curve" smooth="yes"/>
    </contour>
    <contour>
      <point x="356" y="954"/>
      <point x="308" y="905"/>
      <point x="308" y="845" type="curve" smooth="yes"/>
      <point x="308" y="785"/>
      <point x="357" y="737"/>
      <point x="417" y="737" type="curve" smooth="yes"/>
      <point x="477" y="737"/>
      <point x="525" y="786"/>
      <point x="525" y="845" type="curve" smooth="yes"/>
      <point x="525" y="906"/>
      <point x="476" y="954"/>
      <point x="417" y="954" type="curve" smooth="yes"/>
    </contour>
    <contour>
      <point x="439" y="885"/>
      <point x="457" y="869"/>
      <point x="457" y="846" type="curve" smooth="yes"/>
      <point x="457" y="822"/>
      <point x="440" y="805"/>
      <point x="417" y="805" type="curve" smooth="yes"/>
      <point x="394" y="805"/>
      <point x="376" y="821"/>
      <point x="376" y="844" type="curve" smooth="yes"/>
      <point x="376" y="868"/>
      <point x="393" y="885"/>
      <point x="417" y="885" type="curve" smooth="yes"/>
    </contour>
  </outline>
</glyph>
<glyph name="zacute" format="1">
  <advance width="556"/>
  <unicode hex="017A"/>
  <outline>
    <contour>
      <point x="526" y="466" type="line"/>
      <point x="526" y="528" type="line"/>
      <point x="32" y="528" type="line"/>
      <point x="32" y="393" type="line"/>
      <point x="242" y="393" type="line"/>
      <point x="20" y="65" type="line"/>
      <point x="20" y="0" type="line"/>
      <point x="535" y="0" type="line"/>
      <point x="535" y="135" type="line"/>
      <point x="302" y="135" type="line"/>
    </contour>
    <contour>
      <point x="469" y="721" type="line"/>
      <point x="467" y="725" type="line"/>
      <point x="274" y="725" type="line"/>
      <point x="182" y="592" type="line"/>
      <point x="310" y="592" type="line"/>
    </contour>
  </outline>
</glyph>
<glyph name="uni021A" format="1">
  <advance width="722"/>
  <unicode hex="021A"/>
  <outline>
    <contour>
      <point x="695" y="688" type="line"/>
      <point x="23" y="688" type="line"/>
      <point x="23" y="512" type="line"/>
      <point x="249" y="512" type="line"/>
      <point x="249" y="0" type="line"/>
      <point x="470" y="0" type="line"/>
      <point x="470" y="512" type="line"/>
      <point x="695" y="512" type="line"/>
    </contour>
    <contour>
      <point x="426" y="-59" type="line"/>
      <point x="296" y="-59" type="line"/>
      <point x="296" y="-175" type="line"/>
      <point x="346" y="-175" type="line"/>
      <point x="305" y="-267" type="line"/>
      <point x="372" y="-267" type="line"/>
      <point x="426" y="-168" type="line"/>
    </contour>
  </outline>
</glyph>
<glyph name="caron" format="1">
  <advance width="333"/>
  <unicode hex="02C7"/>
  <outline>
    <contour>
      <point x="371" y="725" type="line"/>
      <point x="241" y="725" type="line"/>
      <point x="167" y="648" type="line"/>
      <point x="93" y="725" type="line"/>
      <point x="-35" y="725" type="line"/>
      <point x="104" y="580" type="line"/>
      <point x="232" y="580" type="line"/>
    </contour>
    <contour>
      <point x="168" y="528" type="move" name="_top"/>
    </contour>
  </outline>
</glyph>
<glyph name="endash" format="1">
  <advance width="500"/>
  <unicode hex="2013"/>
  <outline>
    <contour>
      <point x="500" y="334" type="line"/>
      <point x="0" y="334" type="line"/>
      <point x="0" y="196" type="line"/>
      <point x="500" y="196" type="line"/>
    </contour>
  </outline>
</glyph>
<glyph name="emdash" format="1">
  <advance width="1000"/>
  <unicode hex="2014"/>
  <outline>
    <contour>
      <point x="1002" y="334" type="line"/>
      <point x="0" y="334" type="line"/>
      <point x="0" y="196" type="line"/>
      <point x="1002" y="196" type="line"/>
    </contour>
  </outline>
</glyph>
<glyph name="underscoredbl" format="1">
  <advance width="500"/>
  <unicode hex="2017"/>
  <outline>
    <contour>
      <point x="500" y="-159" type="line"/>
      <point x="0" y="-159" type="line"/>
      <point x="0" y="-221" type="line"/>
      <point x="500" y="-221" type="line"/>
    </contour>
    <contour>
      <point x="501" y="-64" type="line"/>
      <point x="1" y="-64" type="line"/>
      <point x="1" y="-126" type="line"/>
      <point x="501" y="-126" type="line"/>
    </contour>
  </outline>
</glyph>
<glyph name="quotereversed" format="1">
  <advance width="278"/>
  <unicode hex="201B"/>
  <outline>
    <contour>
      <point x="230" y="688" type="line"/>
      <point x="44" y="688" type="line"/>
      <point x="44" y="523" type="line"/>
      <point x="135" y="331" type="line"/>
      <point x="230" y="331" type="line"/>
      <point x="159" y="513" type="line"/>
      <point x="230" y="513" type="line"/>
    </contour>
  </outline>
</glyph>
<glyph name="daggerdbl" format="1">
  <advance width="667"/>
  <unicode hex="2021"/>
  <outline>
    <contour>
      <point x="410" y="688" type="line"/>
      <point x="263" y="688" type="line"/>
      <point x="283" y="486" type="line"/>
      <point x="69" y="507" type="line"/>
      <point x="69" y="360" type="line"/>
      <point x="283" y="381" type="line"/>
      <point x="263" y="246" type="line"/>
      <point x="283" y="109" type="line"/>
      <point x="69" y="130" type="line"/>
      <point x="69" y="-17" type="line"/>
      <point x="283" y="4" type="line"/>
      <point x="263" y="-199" type="line"/>
      <point x="410" y="-199" type="line"/>
      <point x="390" y="4" type="line"/>
      <point x="604" y="-17" type="line"/>
      <point x="604" y="130" type="line"/>
      <point x="390" y="109" type="line"/>
      <point x="410" y="246" type="line"/>
      <point x="390" y="381" type="line"/>
      <point x="604" y="360" type="line"/>
      <point x="604" y="507" type="line"/>
      <point x="390" y="486" type="line"/>
    </contour>
  </outline>
</glyph>
<glyph name="minute" format="1">
  <advance width="304"/>
  <unicode hex="2032"/>
  <outline>
    <contour>
      <point x="253" y="725" type="line"/>
      <point x="75" y="725" type="line"/>
      <point x="59" y="511" type="line"/>
      <point x="176" y="511" type="line"/>
      <point x="255" y="721" type="line"/>
    </contour>
  </outline>
</glyph>
<glyph name="uni2105" format="1">
  <advance width="1000"/>
  <unicode hex="2105"/>
  <outline>
    <contour>
      <point x="802" y="263"/>
      <point x="822" y="235"/>
      <point x="822" y="188" type="curve" smooth="yes"/>
      <point x="822" y="151" type="line" smooth="yes"/>
      <point x="822" y="105"/>
      <point x="802" y="77"/>
      <point x="756" y="77" type="curve" smooth="yes"/>
      <point x="710" y="77"/>
      <point x="691" y="105"/>
      <point x="691" y="151" type="curve" smooth="yes"/>
      <point x="691" y="188" type="line" smooth="yes"/>
      <point x="691" y="235"/>
      <point x="710" y="263"/>
      <point x="756" y="263" type="curve" smooth="yes"/>
    </contour>
    <contour>
      <point x="753" y="700" type="line"/>
      <point x="657" y="700" type="line"/>
      <point x="247" y="-12" type="line"/>
      <point x="342" y="-12" type="line"/>
    </contour>
    <contour>
      <point x="637" y="352"/>
      <point x="560" y="292"/>
      <point x="560" y="170" type="curve" smooth="yes"/>
      <point x="560" y="48"/>
      <point x="637" y="-12"/>
      <point x="756" y="-12" type="curve" smooth="yes"/>
      <point x="875" y="-12"/>
      <point x="953" y="48"/>
      <point x="953" y="170" type="curve" smooth="yes"/>
      <point x="953" y="292"/>
      <point x="875" y="352"/>
      <point x="756" y="352" type="curve" smooth="yes"/>
    </contour>
    <contour>
      <point x="123" y="699"/>
      <point x="46" y="639"/>
      <point x="46" y="517" type="curve" smooth="yes"/>
      <point x="46" y="395"/>
      <point x="123" y="335"/>
      <point x="242" y="335" type="curve" smooth="yes"/>
      <point x="348" y="335"/>
      <point x="434" y="379"/>
      <point x="434" y="485" type="curve"/>
      <point x="312" y="485" type="line"/>
      <point x="312" y="442"/>
      <point x="288" y="424"/>
      <point x="245" y="424" type="curve" smooth="yes"/>
      <point x="196" y="424"/>
      <point x="177" y="452"/>
      <point x="177" y="498" type="curve" smooth="yes"/>
      <point x="177" y="536" type="line" smooth="yes"/>
      <point x="177" y="582"/>
      <point x="196" y="610"/>
      <point x="242" y="610" type="curve" smooth="yes"/>
      <point x="263" y="610"/>
      <point x="279" y="606"/>
      <point x="290" y="596" type="curve" smooth="yes"/>
      <point x="301" y="586"/>
      <point x="307" y="572"/>
      <point x="307" y="551" type="curve"/>
      <point x="434" y="551" type="line"/>
      <point x="434" y="657"/>
      <point x="348" y="699"/>
      <point x="242" y="699" type="curve" smooth="yes"/>
    </contour>
  </outline>
</glyph>
<glyph name="uni2116" format="1">
  <advance width="1345"/>
  <unicode hex="2116"/>
  <outline>
    <contour>
      <point x="910" y="700"/>
      <point x="817" y="634"/>
      <point x="817" y="501" type="curve" smooth="yes"/>
      <point x="817" y="368"/>
      <point x="910" y="302"/>
      <point x="1053" y="302" type="curve" smooth="yes"/>
      <point x="1195" y="302"/>
      <point x="1289" y="368"/>
      <point x="1289" y="501" type="curve" smooth="yes"/>
      <point x="1289" y="634"/>
      <point x="1195" y="700"/>
      <point x="1053" y="700" type="curve" smooth="yes"/>
    </contour>
    <contour>
      <point x="1108" y="593"/>
      <point x="1131" y="559"/>
      <point x="1131" y="503" type="curve" smooth="yes"/>
      <point x="1131" y="498" type="line" smooth="yes"/>
      <point x="1131" y="443"/>
      <point x="1108" y="409"/>
      <point x="1053" y="409" type="curve" smooth="yes"/>
      <point x="997" y="409"/>
      <point x="975" y="443"/>
      <point x="975" y="498" type="curve" smooth="yes"/>
      <point x="975" y="503" type="line" smooth="yes"/>
      <point x="975" y="559"/>
      <point x="997" y="593"/>
      <point x="1053" y="593" type="curve" smooth="yes"/>
    </contour>
    <contour>
      <point x="759" y="688" type="line"/>
      <point x="556" y="688" type="line"/>
      <point x="556" y="349" type="line"/>
      <point x="267" y="688" type="line"/>
      <point x="74" y="688" type="line"/>
      <point x="74" y="0" type="line"/>
      <point x="277" y="0" type="line"/>
      <point x="277" y="334" type="line"/>
      <point x="566" y="0" type="line"/>
      <point x="759" y="0" type="line"/>
    </contour>
    <contour>
      <point x="1265" y="262" type="line"/>
      <point x="841" y="262" type="line"/>
      <point x="841" y="144" type="line"/>
      <point x="1265" y="144" type="line"/>
    </contour>
  </outline>
</glyph>
<glyph name="arrowup" format="1">
  <advance width="500"/>
  <unicode hex="2191"/>
  <outline>
    <contour>
      <point x="186" y="-206" type="line"/>
      <point x="312" y="-206" type="line"/>
      <point x="312" y="486" type="line"/>
      <point x="452" y="443" type="line"/>
      <point x="452" y="514" type="line"/>
      <point x="260" y="711" type="line"/>
      <point x="239" y="711" type="line"/>
      <point x="46" y="514" type="line"/>
      <point x="46" y="443" type="line"/>
      <point x="186" y="486" type="line"/>
    </contour>
  </outline>
</glyph>
<glyph name="product" format="1">
  <advance width="823"/>
  <unicode hex="220F"/>
  <outline>
    <contour>
      <point x="803" y="725" type="line"/>
      <point x="21" y="725" type="line"/>
      <point x="21" y="579" type="line"/>
      <point x="138" y="579" type="line"/>
      <point x="138" y="-138" type="line"/>
      <point x="311" y="-138" type="line"/>
      <point x="311" y="579" type="line"/>
      <point x="513" y="579" type="line"/>
      <point x="513" y="-138" type="line"/>
      <point x="686" y="-138" type="line"/>
      <point x="686" y="579" type="line"/>
      <point x="803" y="579" type="line"/>
    </contour>
  </outline>
</glyph>
<glyph name=".notdef" format="1">
  <advance width="750"/>
  <outline>
    <contour>
      <point x="0" y="700" type="line"/>
      <point x="0" y="0" type="line"/>
      <point x="500" y="0" type="line"/>
      <point x="500" y="700" type="line"/>
    </contour>
    <contour>
      <point x="420" y="650" type="line"/>
      <point x="250" y="395" type="line"/>
      <point x="80" y="650" type="line"/>
    </contour>
    <contour>
      <point x="450" y="95" type="line"/>
      <point x="280" y="350" type="line"/>
      <point x="450" y="605" type="line"/>
    </contour>
    <contour>
      <point x="420" y="50" type="line"/>
      <point x="80" y="50" type="line"/>
      <point x="250" y="305" type="line"/>
    </contour>
    <contour>
      <point x="50" y="95" type="line"/>
      <point x="50" y="605" type="line"/>
      <point x="220" y="350" type="line"/>
    </contour>
  </outline>
</glyph>
